<svg width="40" height="40" viewBox="0 0 4 4" fill="none" xmlns="http://www.w3.org/2000/svg">
<path fill-rule="evenodd" clip-rule="evenodd" d="M3.73588 1.97337C3.73588 1.36967 3.11412 0.880238 2.34568 0.880238C1.57723 0.880238 0.955444 1.36967 0.955444 1.97337C0.955444 2.57708 1.57723 3.06651 2.34568 3.06651C3.11412 3.06651 3.73588 2.57708 3.73588 1.97337ZM2.24043 2.21821H2.57205C2.57205 1.97713 3.01528 1.94581 3.01528 1.61326C3.01528 1.37844 2.76019 1.24186 2.37756 1.24186C2.05552 1.24186 1.81955 1.33584 1.67287 1.49021L1.92796 1.61952C2.01724 1.51903 2.15754 1.46139 2.34885 1.46139C2.54973 1.46139 2.67409 1.53907 2.67409 1.65335C2.67409 1.85784 2.24043 1.91573 2.24043 2.21821ZM2.40624 2.70639C2.52741 2.70639 2.6135 2.63472 2.6135 2.54701C2.6135 2.45905 2.52741 2.38888 2.40624 2.38888C2.28508 2.38888 2.19898 2.45905 2.19898 2.54701C2.19898 2.63472 2.28508 2.70639 2.40624 2.70639ZM2.9515 1.20903C3.13644 1.29824 3.28948 1.43507 3.38514 1.59696C3.45528 1.7135 3.49035 1.83905 3.49035 1.98465C3.49035 2.30718 3.26079 2.56956 2.99295 2.71642C2.94193 2.74524 2.87815 2.77406 2.8112 2.79661C2.04594 3.06025 1.19779 2.62219 1.19779 1.97337C1.19779 1.83153 1.23603 1.71876 1.2998 1.60448C1.4688 1.29449 1.89927 1.06468 2.33929 1.0722C2.57844 1.07746 2.76338 1.11756 2.9515 1.20903Z" fill="white"/>
</svg>
