<svg width="400" height="600" viewBox="0 0 24 6" fill="none" xmlns="http://www.w3.org/2000/svg">
<path fill-rule="evenodd" clip-rule="evenodd" d="M0.871497 4.6934C0.908132 4.90532 1.06202 5.0297 1.24153 5.1086C1.44669 5.19901 1.79105 5.17282 2.05116 5.17282C8.59786 5.17282 15.1446 5.17282 21.6876 5.17282C21.9074 5.17282 22.3947 5.19152 22.5815 5.15899C22.8086 5.11752 22.9845 4.9894 23.0651 4.84255C23.153 4.68707 23.1237 4.37063 23.1237 4.18117C23.1237 3.81463 23.142 0.826745 23.1164 0.678459C23.0834 0.480361 22.9149 0.32978 22.7427 0.261827C22.5192 0.175159 22.2005 0.202793 21.9294 0.202793H2.29293C1.65548 0.202793 1.14627 0.126205 0.922801 0.536798C0.83854 0.689691 0.867848 1.00095 0.867848 1.19069C0.867848 1.55838 0.845852 4.54511 0.871497 4.6934Z" fill="black"/>
<path fill-rule="evenodd" clip-rule="evenodd" d="M10.7148 1.78769L10.8772 1.79421V0.993375L10.7184 0.99224L10.7148 1.78769ZM9.53133 1.11247L9.80917 1.11135V1.78911L9.97154 1.79421V1.11135L10.253 1.11021V0.995923L9.53133 0.990827V1.11247ZM11.0071 1.11135L11.2885 1.11247V1.79421H11.3066H11.4473V1.11247L11.7287 1.11135V0.990827H11.0107L11.0071 1.11135ZM8.81692 1.78655L9.42668 1.78769V1.67738L8.99011 1.67625V1.45277L9.37978 1.44881V1.33481H8.99011V1.11247L9.43031 1.11135V0.995923L8.81329 0.990827L8.81692 1.78655ZM13.006 1.46781C12.9122 1.8203 12.1761 1.73126 12.288 1.31836C12.3277 1.17657 12.5117 1.06229 12.7426 1.10369C12.923 1.13659 13.0493 1.2883 13.006 1.46781ZM12.5117 0.988266C12.2627 1.03988 12.0498 1.23442 12.1328 1.49674C12.2988 2.03016 13.338 1.83307 13.1648 1.28575C13.1034 1.09121 12.8328 0.921907 12.5117 0.988266ZM8.65455 1.35976C8.57517 1.3436 8.23238 1.35097 8.13496 1.35494L8.13859 1.46895L8.49219 1.47036C8.47415 1.7477 7.88963 1.77153 7.79582 1.48029C7.72365 1.25569 7.9221 1.06994 8.22157 1.1C8.35147 1.11389 8.36588 1.16408 8.43443 1.19046C8.47412 1.16153 8.51382 1.14027 8.53186 1.09745C8.0628 0.76367 7.42055 1.16664 7.6659 1.57075C7.90404 1.96351 8.73754 1.86312 8.65455 1.35976ZM13.3271 1.79421H13.4859V1.1967L13.4931 1.20295L13.8539 1.64589C13.9874 1.81916 13.9441 1.79421 14.1317 1.7928V0.993375L13.9694 0.99224L13.9513 1.53559L13.9044 1.48283C13.8828 1.45533 13.872 1.43889 13.8503 1.41393C13.807 1.35977 13.7745 1.32347 13.7349 1.27214C13.6627 1.18281 13.5689 1.07873 13.5111 0.99224L13.3271 0.990827V1.79421Z" fill="white"/>
<path fill-rule="evenodd" clip-rule="evenodd" d="M3.49402 3.6365L3.46557 3.60882L3.55096 3.69186L3.49402 3.6365ZM5.67812 1.10888C5.58563 1.04011 5.39711 1.06248 5.29396 1.10413C5.24416 1.10273 4.57896 1.25453 4.49714 1.27858L1.85062 1.85954C1.74035 1.8847 1.59453 1.92104 1.56963 2.03259C1.56251 2.0653 1.56249 2.04266 1.56605 2.07425C1.56605 2.12178 1.5803 2.15701 1.64077 2.19838C1.64788 2.24731 2.81463 3.1397 2.96403 3.25628C3.18813 3.43465 3.41577 3.61274 3.64343 3.79083C3.84974 3.9541 4.09874 4.17243 4.31929 4.31306C4.38687 4.33431 4.40466 4.35333 4.46157 4.34578C4.60386 4.38324 4.69989 4.21382 4.7319 4.12463C4.76747 4.02315 4.80304 3.92781 4.83861 3.82605C4.9062 3.62643 4.9809 3.42962 5.05204 3.22749L5.47536 2.04153C5.5465 1.88218 5.59986 1.69515 5.66033 1.52936C5.70302 1.40775 5.81329 1.20701 5.67812 1.10888Z" fill="#00F075"/>
<path d="M9.01181 3.64417L9.04403 3.64894L9.07621 3.66526L9.25513 3.81459C9.17641 3.89502 9.07622 3.95662 8.95813 3.99796C8.84004 4.0393 8.70049 4.06068 8.53589 4.06068C8.38917 4.06068 8.25318 4.04072 8.1351 4.0005C8.01701 3.96028 7.9168 3.90515 7.8345 3.83484C7.75219 3.76453 7.69137 3.68157 7.64485 3.5851C7.60191 3.48835 7.58044 3.38429 7.58044 3.27123C7.58044 3.15592 7.60548 3.05045 7.65558 2.9537C7.70567 2.85724 7.77726 2.77427 7.86672 2.70396C7.95618 2.63506 8.06353 2.57994 8.18877 2.54085C8.31402 2.50203 8.45358 2.48318 8.60745 2.48318C8.67902 2.48318 8.75058 2.48825 8.81499 2.49837C8.87941 2.50821 8.94022 2.52341 8.99748 2.54085C9.05473 2.55856 9.10485 2.57993 9.15494 2.60496C9.20146 2.62999 9.2444 2.65756 9.28019 2.68906L9.12632 2.85078L9.09054 2.87721C9.0798 2.88593 9.05833 2.88986 9.03686 2.88986C9.01897 2.88986 9.00466 2.88733 8.99035 2.88087C8.97604 2.87608 8.95812 2.86849 8.9438 2.8609C8.92591 2.85218 8.90802 2.84346 8.89013 2.83446C8.87223 2.82462 8.84721 2.8159 8.82216 2.8083C8.79353 2.79958 8.76488 2.79312 8.7291 2.78693C8.69331 2.78187 8.65037 2.77821 8.60385 2.77821C8.52155 2.77821 8.44641 2.79059 8.37842 2.81337C8.31043 2.83587 8.24962 2.86849 8.2031 2.91124C8.153 2.95371 8.11363 3.00658 8.08858 3.06676C8.05996 3.12695 8.04564 3.19614 8.04564 3.27123C8.04564 3.35026 8.05996 3.42057 8.08858 3.48216C8.11363 3.54375 8.15298 3.59523 8.1995 3.63657C8.24602 3.67932 8.29972 3.71053 8.36413 3.73303C8.42854 3.7544 8.49292 3.76566 8.56807 3.76566C8.60743 3.76566 8.64324 3.76454 8.67902 3.76088C8.71481 3.75835 8.74702 3.75188 8.77565 3.74457C8.80427 3.73697 8.83289 3.72684 8.85794 3.71419C8.88299 3.70181 8.91161 3.68663 8.94024 3.66779L8.97246 3.65035L9.01181 3.64417Z" fill="white"/>
<path d="M9.89703 2.45764V4.04272H9.47791V2.45764H9.89703Z" fill="white"/>
<path d="M10.7167 3.84347C10.7706 3.84347 10.8173 3.83586 10.8568 3.8209C10.8999 3.80594 10.9394 3.78195 10.9825 3.74807V3.59622C10.8999 3.59876 10.8281 3.60497 10.7742 3.61259C10.7204 3.62134 10.6772 3.63263 10.6449 3.64533C10.6162 3.65775 10.5946 3.67158 10.5803 3.68796C10.5695 3.70404 10.5623 3.72183 10.5623 3.74187C10.5623 3.77828 10.5767 3.80453 10.6018 3.81977C10.627 3.83586 10.6665 3.84347 10.7167 3.84347ZM11.198 4.04304C11.1585 4.04304 11.1298 4.03937 11.1082 4.03033C11.0867 4.02158 11.0723 4.00409 11.0579 3.97784L11.0292 3.91743C10.9933 3.94001 10.9574 3.96147 10.9286 3.97897C10.8927 3.99647 10.8604 4.01171 10.8281 4.023C10.7922 4.03542 10.7527 4.04558 10.7167 4.05066C10.6772 4.05687 10.6341 4.06053 10.5839 4.06053C10.5228 4.06053 10.4653 4.05319 10.4115 4.04049C10.3612 4.02807 10.3145 4.00804 10.2786 3.98263C10.2427 3.9578 10.214 3.92618 10.1924 3.88751C10.1745 3.84969 10.1637 3.80707 10.1637 3.75683C10.1637 3.71787 10.178 3.67779 10.2032 3.63771C10.2283 3.59621 10.2714 3.5598 10.3325 3.52593C10.3935 3.49206 10.4797 3.4644 10.5839 3.44182C10.688 3.41924 10.8209 3.40682 10.9825 3.40287V3.35657C10.9825 3.2925 10.9645 3.24621 10.9322 3.21714C10.8999 3.18835 10.8496 3.17452 10.7886 3.17452C10.7383 3.17452 10.6952 3.17847 10.6665 3.18722C10.6342 3.19597 10.609 3.20472 10.5803 3.21601C10.5587 3.22589 10.5336 3.23605 10.5085 3.2448C10.4869 3.25242 10.4582 3.25751 10.4259 3.25751C10.3971 3.25751 10.372 3.25101 10.354 3.24113C10.3325 3.22984 10.3181 3.21601 10.3073 3.19964L10.2283 3.0969C10.3145 3.03904 10.4079 2.99501 10.5085 2.96622C10.6126 2.93743 10.7239 2.92359 10.8424 2.92359C10.925 2.92359 11.0005 2.93489 11.0723 2.95634C11.1369 2.97751 11.1944 3.00771 11.2447 3.04525C11.2878 3.0842 11.3273 3.13078 11.3524 3.18328C11.374 3.23606 11.3883 3.29391 11.3883 3.35657V4.04304H11.198Z" fill="white"/>
<path d="M12.2047 4.32754C12.1903 4.34905 12.1759 4.36518 12.1579 4.37537C12.1399 4.38641 12.1111 4.39149 12.0715 4.39149H11.7582L12.0283 3.94604L11.4702 2.94445H11.841C11.8734 2.94445 11.8986 2.94954 11.9166 2.96087C11.9347 2.97219 11.9455 2.98605 11.9527 3.00105L12.1831 3.47538C12.2047 3.51924 12.2227 3.56199 12.2335 3.60586C12.2443 3.5835 12.2551 3.56199 12.2659 3.53934C12.2767 3.51812 12.2875 3.49547 12.2947 3.47283L12.5036 3.00105C12.5108 2.98464 12.5252 2.97219 12.5468 2.96087C12.5684 2.94954 12.59 2.94445 12.6116 2.94445H12.9501L12.2047 4.32754Z" fill="white"/>
<path d="M14.7389 2.813C14.7244 2.83061 14.7099 2.84311 14.6955 2.85191C14.681 2.85957 14.6594 2.8644 14.6377 2.8644C14.616 2.8644 14.5943 2.85958 14.5691 2.84936C14.5438 2.83828 14.5185 2.82691 14.4896 2.81442C14.4607 2.80164 14.4246 2.79058 14.3848 2.78035C14.3487 2.77042 14.3017 2.76417 14.2547 2.76417C14.168 2.76417 14.1066 2.77922 14.0633 2.80818C14.0235 2.83572 14.0018 2.87462 14.0018 2.92346C14.0018 2.95498 14.0127 2.97996 14.038 3.00125C14.0633 3.02141 14.0958 3.03903 14.1355 3.05408C14.1789 3.06913 14.2259 3.08161 14.2764 3.0941C14.3306 3.1066 14.3848 3.12051 14.439 3.13556C14.4932 3.15061 14.5474 3.16822 14.6016 3.18952C14.6522 3.20968 14.6991 3.23608 14.7389 3.26731C14.7786 3.29997 14.8147 3.33773 14.84 3.38401C14.8617 3.42916 14.8761 3.48453 14.8761 3.54841C14.8761 3.61997 14.8617 3.6867 14.8292 3.74803C14.7967 3.81078 14.7533 3.86473 14.6919 3.9113C14.6341 3.95758 14.5582 3.99392 14.4715 4.02033C14.3848 4.04674 14.2836 4.06065 14.1752 4.06065C14.1102 4.06065 14.0488 4.05554 13.9874 4.0456C13.9224 4.03538 13.8609 4.02174 13.8031 4.00272C13.7417 3.98512 13.6876 3.96382 13.637 3.93883C13.5828 3.91498 13.5394 3.88745 13.4997 3.85735L13.6333 3.68897C13.6442 3.67648 13.6586 3.66654 13.6767 3.65887C13.6948 3.65149 13.7128 3.64638 13.7345 3.64638C13.7598 3.64638 13.7887 3.65404 13.8176 3.66654C13.8429 3.68017 13.8718 3.69521 13.9079 3.71168C13.9441 3.72786 13.9802 3.74292 14.0271 3.7557C14.0741 3.76933 14.1247 3.77557 14.1861 3.77557C14.2692 3.77557 14.3342 3.76194 14.3812 3.73298C14.4245 3.70401 14.4498 3.65887 14.4498 3.59753C14.4498 3.56119 14.4354 3.53224 14.4101 3.50952C14.3848 3.48709 14.3523 3.46834 14.3126 3.45301C14.2692 3.43796 14.2258 3.42547 14.1716 3.41411C14.1175 3.40303 14.0669 3.39026 14.0091 3.37663C13.9549 3.36272 13.9043 3.34511 13.8501 3.32524C13.7995 3.30508 13.7526 3.27867 13.7128 3.24602C13.6695 3.21336 13.637 3.17191 13.6117 3.12307C13.5864 3.07423 13.5755 3.01376 13.5755 2.94107C13.5755 2.88343 13.59 2.82692 13.6189 2.77155C13.6478 2.71646 13.6911 2.66735 13.749 2.62475C13.8068 2.58216 13.879 2.54695 13.9621 2.52196C14.0452 2.49556 14.1391 2.48306 14.2475 2.48306C14.3089 2.48306 14.3667 2.48676 14.4245 2.49443C14.4823 2.50181 14.5365 2.51175 14.5871 2.52708C14.6377 2.54071 14.6847 2.55831 14.7316 2.57847C14.775 2.59835 14.8147 2.62106 14.8472 2.64746L14.7389 2.813Z" fill="white"/>
<path d="M15.594 4.06032C15.5288 4.06032 15.4709 4.0515 15.4166 4.03643C15.3659 4.02163 15.3261 4.00029 15.2899 3.9727C15.2537 3.9451 15.2284 3.91096 15.2103 3.87085C15.1922 3.83188 15.185 3.78807 15.185 3.73914V3.17047H15.0655C15.0438 3.17047 15.0257 3.16563 15.0112 3.15426C14.9931 3.1443 14.9859 3.12808 14.9859 3.10646V2.97844L15.2103 2.94459L15.2936 2.67605C15.3044 2.6422 15.3334 2.62599 15.3841 2.62599H15.6012V2.94716H15.9414V3.17047H15.6012V3.71639C15.6012 3.74171 15.6084 3.76304 15.6265 3.77926C15.641 3.7969 15.6627 3.80429 15.6953 3.80429C15.7098 3.80429 15.7207 3.80315 15.7315 3.80059L15.7605 3.79177L15.7822 3.78437L15.8039 3.78067L15.8365 3.78694L15.8582 3.80941L15.9849 3.96502C15.9306 3.99631 15.8691 4.02021 15.8039 4.03643C15.7351 4.0515 15.6664 4.06032 15.594 4.06032Z" fill="white"/>
<path d="M16.8041 3.81603C16.8985 3.81603 16.9711 3.78951 17.0146 3.73674C17.0618 3.68284 17.0835 3.6024 17.0835 3.49345C17.0835 3.38421 17.0618 3.30378 17.0146 3.25102C16.9711 3.19825 16.8985 3.17087 16.8041 3.17087C16.7025 3.17087 16.6336 3.19825 16.5864 3.25102C16.5428 3.30378 16.5174 3.38421 16.5174 3.49345C16.5174 3.6024 16.5428 3.68284 16.5864 3.73674C16.6336 3.78951 16.7025 3.81603 16.8041 3.81603ZM16.8041 2.92729C16.9094 2.92729 17.0073 2.94127 17.0944 2.96751C17.1815 2.99261 17.2541 3.03027 17.3158 3.07904C17.3811 3.12809 17.4283 3.18713 17.4609 3.25615C17.4972 3.32632 17.5154 3.40418 17.5154 3.49089C17.5154 3.57873 17.4972 3.65774 17.4609 3.7279C17.4283 3.79835 17.3811 3.85852 17.3158 3.90758C17.2541 3.95635 17.1815 3.994 17.0944 4.02053C17.0073 4.04677 16.9094 4.06075 16.8041 4.06075C16.6953 4.06075 16.5973 4.04677 16.5102 4.02053C16.4231 3.994 16.3469 3.95635 16.2852 3.90758C16.2235 3.85852 16.1727 3.79835 16.14 3.7279C16.1037 3.65774 16.0856 3.57873 16.0856 3.49089C16.0856 3.40418 16.1037 3.32632 16.14 3.25615C16.1727 3.18713 16.2235 3.12809 16.2852 3.07904C16.3469 3.03027 16.4231 2.99261 16.5102 2.96751C16.5973 2.94127 16.6953 2.92729 16.8041 2.92729Z" fill="white"/>
<path d="M17.7438 4.04308V2.94486H17.991C18.0128 2.94486 18.0274 2.94629 18.0419 2.94886L18.0783 2.96258L18.1001 2.9863C18.1074 2.99659 18.1074 3.00773 18.111 3.02145L18.1365 3.12431C18.1874 3.06287 18.2455 3.01401 18.3074 2.97772C18.3728 2.94114 18.4419 2.92372 18.5182 2.92372C18.5801 2.92372 18.631 2.93628 18.671 2.96L18.6164 3.20091C18.6128 3.21605 18.6055 3.22606 18.5946 3.23234C18.5837 3.23863 18.5691 3.2412 18.5546 3.2412C18.5364 3.2412 18.5182 3.23977 18.5001 3.23606C18.4782 3.23348 18.4528 3.23234 18.4201 3.23234C18.311 3.23234 18.2237 3.2775 18.1619 3.36923V4.04308H17.7438Z" fill="white"/>
<path d="M19.4647 3.15425C19.3845 3.15425 19.3225 3.17172 19.2788 3.2081C19.2314 3.24334 19.2023 3.29461 19.1877 3.36136H19.7089C19.7089 3.33615 19.7052 3.30979 19.698 3.28601C19.687 3.2608 19.6761 3.23818 19.6578 3.21956C19.636 3.19951 19.6105 3.18433 19.5813 3.17172C19.5485 3.16055 19.5084 3.15425 19.4647 3.15425ZM19.4574 2.92709C19.5485 2.92709 19.6323 2.93827 19.7089 2.9609C19.7891 2.98353 19.8547 3.01733 19.9093 3.06001C19.964 3.10269 20.0077 3.1554 20.0369 3.21813C20.0697 3.28086 20.0843 3.35132 20.0843 3.43038C20.0843 3.45531 20.0843 3.47536 20.0806 3.49054C20.077 3.50687 20.0733 3.51948 20.066 3.52807L20.0369 3.54698C20.026 3.5507 20.0077 3.55213 19.9895 3.55213H19.184C19.1986 3.64351 19.2314 3.71139 19.2897 3.7515C19.3481 3.79303 19.4246 3.81424 19.512 3.81424C19.5631 3.81424 19.6032 3.80936 19.6396 3.80048C19.6724 3.79045 19.7052 3.78043 19.7344 3.76926C19.7599 3.7578 19.7854 3.74778 19.8073 3.7389C19.8292 3.7303 19.8547 3.72515 19.8802 3.72515C19.913 3.72515 19.9385 3.73403 19.9567 3.75409L20.077 3.87096C20.0332 3.90963 19.9859 3.94113 19.9385 3.96634C19.8875 3.99011 19.8364 4.01017 19.7854 4.02278C19.7307 4.03653 19.6797 4.04655 19.6251 4.05142C19.574 4.05658 19.523 4.0603 19.4756 4.0603C19.3772 4.0603 19.2861 4.0477 19.1986 4.02278C19.1148 3.99757 19.0382 3.96005 18.9763 3.91106C18.9107 3.86065 18.8597 3.79935 18.8232 3.72659C18.7868 3.6524 18.7686 3.56703 18.7686 3.4705C18.7686 3.39631 18.7831 3.32726 18.8159 3.26081C18.8451 3.19549 18.8925 3.13792 18.9508 3.08893C19.0127 3.0388 19.0856 2.99984 19.1695 2.97091C19.2533 2.94198 19.348 2.92709 19.4574 2.92709Z" fill="white"/>
</svg>
