<svg width="400" height="600" viewBox="0 0 23 6" fill="none" xmlns="http://www.w3.org/2000/svg">
<path fill-rule="evenodd" clip-rule="evenodd" d="M1.0199 5.16077L1.05827 5.16952C1.4996 5.18611 1.98313 5.17104 2.43214 5.17104L21.7162 5.17224C22.0156 5.17224 22.2688 5.15716 22.4415 4.93124C22.4991 4.85584 22.4953 4.82085 22.5298 4.73278L22.5336 1.09345L22.5298 0.652792C22.5068 0.478456 22.4031 0.373194 22.288 0.300202C22.1192 0.197351 21.9733 0.194945 21.7277 0.194945L2.42063 0.196138C1.96395 0.196138 1.49193 0.1886 1.03909 0.198554L1.01221 0.207302C0.820333 0.193427 0.570872 0.356608 0.497957 0.530038C0.432717 0.673006 0.45958 1.05214 0.45958 1.22768V4.1392C0.45958 4.31112 0.436555 4.7002 0.497957 4.83714C0.574709 5.01268 0.824178 5.17857 1.0199 5.16077Z" fill="black"/>
<path fill-rule="evenodd" clip-rule="evenodd" d="M2.98229 2.36268C2.98229 2.5707 2.77194 2.73903 2.50421 2.73903C2.24031 2.73903 2.02612 2.5707 2.02612 2.36268C2.02612 2.15407 2.24031 1.98604 2.50421 1.98604C2.77194 1.98604 2.98229 2.15407 2.98229 2.36268ZM3.86197 3.24104C3.11616 3.24104 2.50421 2.76038 2.50421 2.17421C2.50421 1.58834 3.11616 1.10768 3.86197 1.10768C4.60778 1.10768 5.21973 1.58834 5.21973 2.17421C5.21973 2.76038 4.60778 3.24104 3.86197 3.24104ZM4.15263 3.44935C3.87343 3.42921 3.65544 3.57471 3.53687 3.67511C3.40683 3.78453 3.29208 4.00036 3.3112 4.20988C3.47184 4.23753 3.7893 4.08813 3.91934 3.9766C4.01878 3.88973 4.21382 3.63873 4.15263 3.44935ZM7.72871 1.72361L7.7249 1.08634C8.04617 1.04485 8.26035 1.13774 8.26035 1.39115C8.26035 1.64215 8.0538 1.75638 7.72871 1.72361ZM7.55279 0.988348C7.54896 1.10769 7.53367 1.75637 7.56044 1.82671C8.04618 1.86429 8.4401 1.78884 8.44393 1.39115C8.44775 0.982032 8.03087 0.945662 7.55279 0.988348ZM8.97173 1.3133C9.2471 1.22793 9.32744 1.64966 9.10178 1.72872C8.81875 1.82912 8.71547 1.39236 8.97173 1.3133ZM8.92201 1.21679C8.45923 1.31839 8.61223 1.95477 9.14768 1.82912C9.5837 1.72631 9.46894 1.09745 8.92201 1.21679ZM9.817 1.83032L9.9738 1.82912C10.012 1.75517 10.035 1.68093 10.0656 1.60578C10.0924 1.54807 10.123 1.4176 10.1459 1.37612C10.1689 1.40498 10.2989 1.7714 10.318 1.82791L10.4749 1.82912L10.7158 1.2156H10.5513C10.4978 1.31089 10.4213 1.65207 10.3945 1.69866C10.3754 1.6184 10.341 1.52912 10.3142 1.45277C10.2071 1.18162 10.2721 1.2141 10.0885 1.2156L9.90496 1.69355L9.78257 1.2694C9.75962 1.20026 9.77493 1.21409 9.58752 1.21409L9.817 1.83032ZM11.0944 1.30066L11.0868 1.21679L10.9338 1.21409L10.9414 1.82912L11.1097 1.83032C11.1327 1.66589 11.0256 1.33463 11.2665 1.31449C11.5151 1.29465 11.431 1.59435 11.4463 1.82551L11.6146 1.83032C11.6261 1.70227 11.6375 1.39987 11.5725 1.30578C11.5304 1.24296 11.454 1.19906 11.3278 1.20297C11.1709 1.20808 11.1403 1.29074 11.0944 1.30066ZM11.9244 1.83543H12.0927V0.934231H11.9244V1.83543ZM12.674 1.31449C12.9571 1.22551 13.0297 1.65477 12.8041 1.72872C12.5172 1.82401 12.4293 1.39234 12.674 1.31449ZM12.7276 1.84294C12.827 1.84415 12.915 1.81409 12.9762 1.77892C13.2133 1.64215 13.1636 1.19274 12.7276 1.20297C12.2227 1.21559 12.2418 1.84174 12.7276 1.84294ZM13.7794 1.52431C13.7832 1.60186 13.7909 1.66229 13.7258 1.70738C13.5614 1.82281 13.3969 1.64966 13.5422 1.56308C13.6034 1.52791 13.6952 1.52551 13.7794 1.52431ZM13.5116 1.84054C13.6646 1.85917 13.7143 1.80147 13.787 1.76509L13.8061 1.82791L13.9591 1.83032L13.9438 1.77261C13.9285 1.66469 13.9668 1.38363 13.8941 1.28683C13.8138 1.17772 13.5078 1.17532 13.3778 1.25829L13.4084 1.34215C13.4848 1.32081 13.5499 1.28955 13.6531 1.30217C13.7373 1.31209 13.7947 1.36229 13.7679 1.43263C13.1598 1.45908 13.2554 1.81048 13.5116 1.84054ZM14.5099 1.32351C14.6476 1.26941 14.7546 1.35718 14.7661 1.45758C14.7814 1.57932 14.7661 1.68724 14.6438 1.72241C14.3684 1.80417 14.2766 1.4164 14.5099 1.32351ZM14.7508 1.25949C14.6973 1.23815 14.6476 1.20176 14.5443 1.20297C14.4563 1.20417 14.3875 1.22913 14.3339 1.2658C14.1351 1.40889 14.1618 1.75878 14.4334 1.83032C14.6285 1.88172 14.7126 1.79515 14.7852 1.73624L14.7929 1.82551L14.9459 1.83543L14.9382 0.934231H14.77L14.7623 1.28083L14.7508 1.25949ZM15.8485 1.56429C15.8065 1.25196 16.2157 1.20808 16.2501 1.48644C16.2884 1.78523 15.883 1.83543 15.8485 1.56429ZM15.6764 1.61089C15.7261 1.69987 15.772 1.83543 16.0283 1.84294C16.3151 1.85166 16.3687 1.69114 16.4184 1.63072C16.4643 1.40256 16.3649 1.21048 16.078 1.20297C15.9212 1.19906 15.837 1.24296 15.7605 1.30578C15.6764 1.37973 15.6611 1.48794 15.6764 1.61089ZM16.8314 1.22312L16.6938 1.22792L16.6976 1.82671H16.8544C16.8544 1.7726 16.8391 1.44766 16.8697 1.43142C16.9003 1.29315 17.1298 1.267 17.1795 1.39505C17.2178 1.48644 17.1833 1.71489 17.1986 1.82912L17.3631 1.83543C17.3784 1.70497 17.3899 1.40378 17.321 1.30338C17.279 1.24296 17.1986 1.19786 17.0724 1.20417C16.9424 1.20928 16.908 1.25949 16.8429 1.30578L16.8314 1.22312ZM18.1854 1.09987L18.1777 1.21679L18.063 1.22551V1.31449L18.1701 1.3172L18.1777 1.60697C18.1777 1.68843 18.1931 1.7678 18.2504 1.80778C18.304 1.84685 18.4493 1.85798 18.5258 1.8216V1.72361C18.4455 1.73113 18.3728 1.74015 18.369 1.67973C18.3269 1.63464 18.3422 1.38875 18.346 1.3172L18.5373 1.316V1.22161L18.3422 1.21409L18.3384 1.0635L18.1854 1.09987ZM18.782 1.83543L18.9503 1.82912C18.9618 1.72992 18.9312 1.47141 18.9618 1.40257C19.0153 1.28203 19.2601 1.27331 19.2754 1.42993C19.3099 1.47021 19.2946 1.78282 19.2946 1.82791H19.4513C19.4513 1.68603 19.4437 1.53934 19.4437 1.40257C19.4514 1.27571 19.2869 1.16389 19.0919 1.21409C19.0307 1.23062 19.0115 1.25948 18.9733 1.2706C18.958 1.29946 18.9962 1.27813 18.9503 1.29586L18.9465 0.933027L18.7782 0.934231L18.782 1.83543ZM19.8797 1.45397C19.9027 1.25437 20.2278 1.22672 20.2393 1.45758L19.8797 1.45397ZM19.7191 1.61089C19.7497 1.66229 19.7459 1.69115 19.7918 1.73503C19.9294 1.8682 20.1781 1.85798 20.3617 1.80267L20.3349 1.71128C20.224 1.72872 20.0748 1.76389 19.9677 1.70107C19.9294 1.68093 19.9103 1.66229 19.9065 1.62712C19.8797 1.60578 19.8797 1.59074 19.8797 1.55557L20.3999 1.55437C20.4228 1.34214 20.3081 1.1714 20.0251 1.20417C19.7611 1.23543 19.6961 1.42873 19.7191 1.61089Z" fill="#FCFCFC"/>
<path d="M8.01578 3.22359H8.25233C8.36873 3.22359 8.45508 3.20085 8.50765 3.15688C8.56022 3.11173 8.58275 3.05035 8.58275 2.97007C8.58275 2.93496 8.57899 2.90221 8.56397 2.87328C8.54895 2.84436 8.53019 2.81927 8.50391 2.7992C8.47387 2.77796 8.44384 2.76144 8.39878 2.75023C8.35748 2.73901 8.30865 2.73399 8.25233 2.73399H8.01578V3.22359ZM8.01578 3.49331V4.00916H7.55768V2.46543H8.25233C8.3875 2.46543 8.50767 2.47931 8.6053 2.50439C8.70668 2.53066 8.78927 2.56577 8.8531 2.61093C8.91693 2.65608 8.96574 2.71008 8.99578 2.77028C9.02582 2.83196 9.04084 2.89836 9.04084 2.97007C9.04084 3.04769 9.02583 3.11793 8.99204 3.18197C8.962 3.24601 8.91319 3.3012 8.84936 3.34783C8.78553 3.39298 8.7029 3.42927 8.60152 3.45436C8.50389 3.48062 8.3875 3.49331 8.25233 3.49331H8.01578Z" fill="#FCFCFC"/>
<path d="M9.70977 2.42363V4.00893H9.29254V2.42363H9.70977Z" fill="#FCFCFC"/>
<path d="M10.5304 3.80968C10.5832 3.80968 10.6322 3.80199 10.6698 3.78689C10.7113 3.77208 10.7527 3.74809 10.7942 3.71433V3.5624C10.7113 3.56477 10.6435 3.57099 10.5869 3.57869C10.5342 3.58728 10.489 3.59883 10.4588 3.61127C10.4287 3.62371 10.4061 3.63762 10.3947 3.65391C10.3834 3.6702 10.3759 3.68796 10.3759 3.70781C10.3759 3.74423 10.3872 3.7706 10.4136 3.78571C10.44 3.80199 10.4777 3.80968 10.5304 3.80968ZM11.0127 4.00901C10.9713 4.00901 10.9411 4.00544 10.9185 3.99656C10.8997 3.98767 10.8846 3.9702 10.8695 3.94385L10.8394 3.88372C10.8055 3.90623 10.7716 3.92756 10.7414 3.94503C10.7075 3.9628 10.6736 3.9776 10.6397 3.98915C10.6058 4.00159 10.5681 4.01166 10.5304 4.0167C10.489 4.02292 10.4475 4.02676 10.3985 4.02676C10.3345 4.02676 10.2779 4.01907 10.2252 4.00663C10.1724 3.9942 10.1272 3.97405 10.0895 3.94888C10.0556 3.92371 10.0292 3.89232 10.0066 3.85353C9.9878 3.81591 9.9765 3.77326 9.9765 3.72292C9.9765 3.68412 9.99156 3.64384 10.0179 3.60386C10.0405 3.5624 10.0858 3.52597 10.1461 3.49191C10.2064 3.45815 10.293 3.43062 10.3985 3.40811C10.5003 3.38531 10.6359 3.37286 10.7942 3.36901V3.32252C10.7942 3.25855 10.7791 3.21205 10.7452 3.18332C10.7113 3.15459 10.6623 3.14067 10.602 3.14067C10.553 3.14067 10.5116 3.14452 10.4777 3.15311C10.4475 3.162 10.4211 3.17206 10.3947 3.18213C10.3721 3.1922 10.3458 3.20228 10.3232 3.21087C10.3006 3.21975 10.2704 3.22361 10.2403 3.22361C10.2101 3.22361 10.1837 3.21856 10.1649 3.20731C10.1461 3.19576 10.131 3.18214 10.1197 3.16585L10.0443 3.06279C10.1272 3.00504 10.2214 2.9612 10.3232 2.93218C10.4249 2.90345 10.5379 2.88954 10.6548 2.88954C10.7414 2.88954 10.813 2.90079 10.8846 2.92212C10.9487 2.94344 11.0089 2.97364 11.0542 3.01125C11.1032 3.05034 11.1371 3.09685 11.1635 3.14957C11.1898 3.20228 11.2011 3.26003 11.2011 3.32252V4.00901H11.0127Z" fill="#FCFCFC"/>
<path d="M12.0148 4.29388C12.0035 4.31645 11.9884 4.33158 11.9695 4.34287C11.9506 4.35296 11.9241 4.35802 11.8826 4.35802H11.5728L11.841 3.91235L11.2819 2.91089H11.6521C11.6861 2.91089 11.7088 2.91594 11.7277 2.92723C11.7466 2.93851 11.7579 2.95246 11.7655 2.96879L11.9959 3.44175C12.0148 3.48569 12.0337 3.52846 12.0488 3.5724C12.0563 3.54984 12.0639 3.52845 12.0752 3.50589C12.0866 3.48451 12.0979 3.46195 12.1092 3.43939L12.317 2.96879C12.3208 2.95246 12.3359 2.93851 12.3586 2.92723C12.3775 2.91594 12.4001 2.91089 12.4266 2.91089H12.7628L12.0148 4.29388Z" fill="#FCFCFC"/>
<path d="M14.0192 3.41918H14.5578L14.3757 2.99645C14.3643 2.96992 14.353 2.93861 14.334 2.90224C14.3188 2.86587 14.3037 2.82563 14.2885 2.78419C14.2733 2.82682 14.2619 2.86706 14.243 2.90344C14.2278 2.93981 14.2126 2.97261 14.2013 2.99884L14.0192 3.41918ZM15.2823 4.00916H14.9295C14.8878 4.00916 14.8575 4.00172 14.8309 3.98771C14.8081 3.9728 14.7892 3.95521 14.7778 3.93136L14.664 3.66276H13.9168L13.7992 3.93136C13.7916 3.95133 13.7726 3.96892 13.7461 3.98532C13.7195 4.00172 13.6892 4.00916 13.6512 4.00916H13.2947L14.0571 2.4655H14.5237L15.2823 4.00916Z" fill="#FCFCFC"/>
<path d="M15.8979 3.22348H16.1337C16.2554 3.22348 16.339 3.20076 16.3923 3.15682C16.4417 3.11169 16.4683 3.05012 16.4683 2.96971C16.4683 2.93474 16.4607 2.90216 16.4493 2.87316C16.4341 2.84447 16.4151 2.81935 16.3885 2.79932C16.3581 2.7778 16.3276 2.76137 16.2858 2.75031C16.2402 2.73895 16.1907 2.73386 16.1337 2.73386H15.8979V3.22348ZM15.8979 3.4931V4.00903H15.4415V2.46544H16.1337C16.2744 2.46544 16.3923 2.4792 16.4911 2.50431C16.59 2.53061 16.6737 2.56588 16.7346 2.61101C16.7992 2.65615 16.8487 2.70996 16.8791 2.77034C16.9095 2.83191 16.9247 2.89827 16.9247 2.96971C16.9247 3.04773 16.9095 3.11797 16.8753 3.18194C16.8449 3.24591 16.7954 3.30121 16.7346 3.34754C16.6661 3.39268 16.5862 3.42914 16.4874 3.45425C16.3885 3.48055 16.2706 3.4931 16.1337 3.4931H15.8979Z" fill="#FCFCFC"/>
<path d="M17.6192 3.22317H17.8556C17.9738 3.22317 18.0578 3.20068 18.1111 3.15662C18.1645 3.11166 18.1874 3.04992 18.1874 2.96959C18.1874 2.93452 18.1836 2.90184 18.1684 2.87307C18.1531 2.84429 18.134 2.81912 18.1073 2.79904C18.0806 2.77776 18.0463 2.76126 18.0044 2.75017C17.9624 2.73878 17.9128 2.73369 17.8556 2.73369H17.6192V3.22317ZM17.6192 3.49294V4.0088H17.1615V2.46512H17.8556C17.9929 2.46512 18.1111 2.4789 18.2103 2.50408C18.3094 2.53046 18.3933 2.56553 18.4582 2.61079C18.5192 2.65605 18.5688 2.71 18.5993 2.77025C18.6298 2.8317 18.6451 2.89825 18.6451 2.96959C18.6451 3.04752 18.6298 3.11767 18.5955 3.18181C18.565 3.24596 18.5192 3.3011 18.4544 3.34756C18.3895 3.39252 18.3056 3.42909 18.2065 3.45427C18.1073 3.48035 17.9891 3.49294 17.8556 3.49294H17.6192Z" fill="#FCFCFC"/>
</svg>
